{
    "asset" : {
        "copyright" : "Jorge Gascon Perez",
        "generator" : "Khronos glTF Blender I/O v1.2.75",
        "version" : "2.0"
    },
    "scene" : 0,
    "scenes" : [
        {
            "name" : "Scene",
            "nodes" : [
                10
            ]
        }
    ],
    "nodes" : [
        {
            "mesh" : 0,
            "name" : "Arm.L"
        },
        {
            "mesh" : 1,
            "name" : "Arm.R"
        },
        {
            "mesh" : 2,
            "name" : "Corset"
        },
        {
            "mesh" : 3,
            "name" : "Eye.L",
            "translation" : [
                -0.001974336802959442,
                -1.951812982559204,
                -0.0006655887118540704
            ]
        },
        {
            "mesh" : 4,
            "name" : "Eye.R",
            "translation" : [
                -0.001974336802959442,
                -1.951812982559204,
                -0.0006655887118540704
            ]
        },
        {
            "mesh" : 5,
            "name" : "Hair"
        },
        {
            "mesh" : 6,
            "name" : "Head_Torso"
        },
        {
            "mesh" : 7,
            "name" : "Ring.L"
        },
        {
            "mesh" : 8,
            "name" : "Ring.R"
        },
        {
            "mesh" : 9,
            "name" : "Skirt"
        },
        {
            "children" : [
                0,
                1,
                2,
                3,
                4,
                5,
                6,
                7,
                8,
                9
            ],
            "name" : "Greta",
            "translation" : [
                0.001974336802959442,
                1.951812982559204,
                0.0006655887700617313
            ]
        }
    ],
    "materials" : [
        {
            "doubleSided" : true,
            "emissiveFactor" : [
                0,
                0,
                0
            ],
            "name" : "Greta",
            "pbrMetallicRoughness" : {
                "baseColorTexture" : {
                    "index" : 0,
                    "texCoord" : 0
                },
                "metallicFactor" : 0,
                "roughnessFactor" : 0.6727272868156433
            }
        },
        {
            "doubleSided" : true,
            "name" : "Ring",
            "pbrMetallicRoughness" : {}
        }
    ],
    "meshes" : [
        {
            "name" : "Arm.L",
            "primitives" : [
                {
                    "attributes" : {
                        "POSITION" : 0,
                        "NORMAL" : 1,
                        "TEXCOORD_0" : 2
                    },
                    "indices" : 3,
                    "material" : 0
                }
            ]
        },
        {
            "name" : "Arm.R",
            "primitives" : [
                {
                    "attributes" : {
                        "POSITION" : 4,
                        "NORMAL" : 5,
                        "TEXCOORD_0" : 6
                    },
                    "indices" : 7,
                    "material" : 0
                }
            ]
        },
        {
            "name" : "Corset",
            "primitives" : [
                {
                    "attributes" : {
                        "POSITION" : 8,
                        "NORMAL" : 9,
                        "TEXCOORD_0" : 10
                    },
                    "indices" : 11,
                    "material" : 0
                }
            ]
        },
        {
            "name" : "Eye.L",
            "primitives" : [
                {
                    "attributes" : {
                        "POSITION" : 12,
                        "NORMAL" : 13,
                        "TEXCOORD_0" : 14
                    },
                    "indices" : 15,
                    "material" : 0
                }
            ]
        },
        {
            "name" : "Eye.R",
            "primitives" : [
                {
                    "attributes" : {
                        "POSITION" : 16,
                        "NORMAL" : 17,
                        "TEXCOORD_0" : 18
                    },
                    "indices" : 19,
                    "material" : 0
                }
            ]
        },
        {
            "name" : "Hair",
            "primitives" : [
                {
                    "attributes" : {
                        "POSITION" : 20,
                        "NORMAL" : 21,
                        "TEXCOORD_0" : 22
                    },
                    "indices" : 23,
                    "material" : 0
                }
            ]
        },
        {
            "name" : "Head_Torso",
            "primitives" : [
                {
                    "attributes" : {
                        "POSITION" : 24,
                        "NORMAL" : 25,
                        "TEXCOORD_0" : 26
                    },
                    "indices" : 27,
                    "material" : 0
                }
            ]
        },
        {
            "name" : "Ring.L",
            "primitives" : [
                {
                    "attributes" : {
                        "POSITION" : 28,
                        "NORMAL" : 29
                    },
                    "indices" : 30,
                    "material" : 1
                }
            ]
        },
        {
            "name" : "Ring.R",
            "primitives" : [
                {
                    "attributes" : {
                        "POSITION" : 31,
                        "NORMAL" : 32
                    },
                    "indices" : 33,
                    "material" : 1
                }
            ]
        },
        {
            "name" : "Skirt",
            "primitives" : [
                {
                    "attributes" : {
                        "POSITION" : 34,
                        "NORMAL" : 35,
                        "TEXCOORD_0" : 36
                    },
                    "indices" : 37,
                    "material" : 0
                }
            ]
        }
    ],
    "textures" : [
        {
            "source" : 0
        }
    ],
    "images" : [
        {
            "bufferView" : 4,
            "mimeType" : "image/jpeg",
            "name" : "Greta"
        }
    ],
    "accessors" : [
        {
            "bufferView" : 0,
            "componentType" : 5126,
            "count" : 365,
            "max" : [
                1.6325591802597046,
                1.2278791666030884,
                0.0007990891463123262
            ],
            "min" : [
                0.49200400710105896,
                0.9317929148674011,
                -0.22012574970722198
            ],
            "type" : "VEC3"
        },
        {
            "bufferView" : 1,
            "componentType" : 5126,
            "count" : 365,
            "type" : "VEC3"
        },
        {
            "bufferView" : 2,
            "componentType" : 5126,
            "count" : 365,
            "type" : "VEC2"
        },
        {
            "bufferView" : 3,
            "componentType" : 5123,
            "count" : 1752,
            "type" : "SCALAR"
        },
        {
            "bufferView" : 5,
            "componentType" : 5126,
            "count" : 365,
            "max" : [
                -0.49200400710105896,
                1.2278791666030884,
                0.0007990891463123262
            ],
            "min" : [
                -1.6325591802597046,
                0.9317929148674011,
                -0.22012574970722198
            ],
            "type" : "VEC3"
        },
        {
            "bufferView" : 6,
            "componentType" : 5126,
            "count" : 365,
            "type" : "VEC3"
        },
        {
            "bufferView" : 7,
            "componentType" : 5126,
            "count" : 365,
            "type" : "VEC2"
        },
        {
            "bufferView" : 8,
            "componentType" : 5123,
            "count" : 1752,
            "type" : "SCALAR"
        },
        {
            "bufferView" : 9,
            "componentType" : 5126,
            "count" : 300,
            "max" : [
                0.2811788022518158,
                0.9661012887954712,
                0.284522145986557
            ],
            "min" : [
                -0.2811788022518158,
                0.3721698224544525,
                -0.20558933913707733
            ],
            "type" : "VEC3"
        },
        {
            "bufferView" : 10,
            "componentType" : 5126,
            "count" : 300,
            "type" : "VEC3"
        },
        {
            "bufferView" : 11,
            "componentType" : 5126,
            "count" : 300,
            "type" : "VEC2"
        },
        {
            "bufferView" : 12,
            "componentType" : 5123,
            "count" : 1470,
            "type" : "SCALAR"
        },
        {
            "bufferView" : 13,
            "componentType" : 5126,
            "count" : 146,
            "max" : [
                0.13320845365524292,
                3.6691932678222656,
                0.14855295419692993
            ],
            "min" : [
                0.003935828804969788,
                3.5399203300476074,
                0.019280292093753815
            ],
            "type" : "VEC3"
        },
        {
            "bufferView" : 14,
            "componentType" : 5126,
            "count" : 146,
            "type" : "VEC3"
        },
        {
            "bufferView" : 15,
            "componentType" : 5126,
            "count" : 146,
            "type" : "VEC2"
        },
        {
            "bufferView" : 16,
            "componentType" : 5123,
            "count" : 792,
            "type" : "SCALAR"
        },
        {
            "bufferView" : 17,
            "componentType" : 5126,
            "count" : 146,
            "max" : [
                1.284480094909668e-05,
                3.6691935062408447,
                0.14855295419692993
            ],
            "min" : [
                -0.12925979495048523,
                3.5399205684661865,
                0.019280292093753815
            ],
            "type" : "VEC3"
        },
        {
            "bufferView" : 18,
            "componentType" : 5126,
            "count" : 146,
            "type" : "VEC3"
        },
        {
            "bufferView" : 19,
            "componentType" : 5126,
            "count" : 146,
            "type" : "VEC2"
        },
        {
            "bufferView" : 20,
            "componentType" : 5123,
            "count" : 792,
            "type" : "SCALAR"
        },
        {
            "bufferView" : 21,
            "componentType" : 5126,
            "count" : 450,
            "max" : [
                0.2481364756822586,
                1.8996304273605347,
                0.19537748396396637
            ],
            "min" : [
                -0.2481364756822586,
                0.47850027680397034,
                -0.3221456706523895
            ],
            "type" : "VEC3"
        },
        {
            "bufferView" : 22,
            "componentType" : 5126,
            "count" : 450,
            "type" : "VEC3"
        },
        {
            "bufferView" : 23,
            "componentType" : 5126,
            "count" : 450,
            "type" : "VEC2"
        },
        {
            "bufferView" : 24,
            "componentType" : 5123,
            "count" : 2064,
            "type" : "SCALAR"
        },
        {
            "bufferView" : 25,
            "componentType" : 5126,
            "count" : 930,
            "max" : [
                0.5118104815483093,
                1.8396424055099487,
                0.2797483801841736
            ],
            "min" : [
                -0.5118104815483093,
                0.6558701992034912,
                -0.24622921645641327
            ],
            "type" : "VEC3"
        },
        {
            "bufferView" : 26,
            "componentType" : 5126,
            "count" : 930,
            "type" : "VEC3"
        },
        {
            "bufferView" : 27,
            "componentType" : 5126,
            "count" : 930,
            "type" : "VEC2"
        },
        {
            "bufferView" : 28,
            "componentType" : 5123,
            "count" : 4170,
            "type" : "SCALAR"
        },
        {
            "bufferView" : 29,
            "componentType" : 5126,
            "count" : 768,
            "max" : [
                0.16707241535186768,
                1.5545570850372314,
                0.040982041507959366
            ],
            "min" : [
                0.14555589854717255,
                1.4283192157745361,
                -0.08573796600103378
            ],
            "type" : "VEC3"
        },
        {
            "bufferView" : 30,
            "componentType" : 5126,
            "count" : 768,
            "type" : "VEC3"
        },
        {
            "bufferView" : 31,
            "componentType" : 5123,
            "count" : 4608,
            "type" : "SCALAR"
        },
        {
            "bufferView" : 32,
            "componentType" : 5126,
            "count" : 768,
            "max" : [
                -0.14555589854717255,
                1.5545570850372314,
                0.040982041507959366
            ],
            "min" : [
                -0.16707241535186768,
                1.4283192157745361,
                -0.08573796600103378
            ],
            "type" : "VEC3"
        },
        {
            "bufferView" : 33,
            "componentType" : 5126,
            "count" : 768,
            "type" : "VEC3"
        },
        {
            "bufferView" : 34,
            "componentType" : 5123,
            "count" : 4608,
            "type" : "SCALAR"
        },
        {
            "bufferView" : 35,
            "componentType" : 5126,
            "count" : 620,
            "max" : [
                0.7766778469085693,
                0.5245195031166077,
                0.42331287264823914
            ],
            "min" : [
                -0.7766778469085693,
                -1.9160999059677124,
                -0.8974340558052063
            ],
            "type" : "VEC3"
        },
        {
            "bufferView" : 36,
            "componentType" : 5126,
            "count" : 620,
            "type" : "VEC3"
        },
        {
            "bufferView" : 37,
            "componentType" : 5126,
            "count" : 620,
            "type" : "VEC2"
        },
        {
            "bufferView" : 38,
            "componentType" : 5123,
            "count" : 3288,
            "type" : "SCALAR"
        }
    ],
    "bufferViews" : [
        {
            "buffer" : 0,
            "byteLength" : 4380,
            "byteOffset" : 0
        },
        {
            "buffer" : 0,
            "byteLength" : 4380,
            "byteOffset" : 4380
        },
        {
            "buffer" : 0,
            "byteLength" : 2920,
            "byteOffset" : 8760
        },
        {
            "buffer" : 0,
            "byteLength" : 3504,
            "byteOffset" : 11680
        },
        {
            "buffer" : 0,
            "byteLength" : 155565,
            "byteOffset" : 15184
        },
        {
            "buffer" : 0,
            "byteLength" : 4380,
            "byteOffset" : 170752
        },
        {
            "buffer" : 0,
            "byteLength" : 4380,
            "byteOffset" : 175132
        },
        {
            "buffer" : 0,
            "byteLength" : 2920,
            "byteOffset" : 179512
        },
        {
            "buffer" : 0,
            "byteLength" : 3504,
            "byteOffset" : 182432
        },
        {
            "buffer" : 0,
            "byteLength" : 3600,
            "byteOffset" : 185936
        },
        {
            "buffer" : 0,
            "byteLength" : 3600,
            "byteOffset" : 189536
        },
        {
            "buffer" : 0,
            "byteLength" : 2400,
            "byteOffset" : 193136
        },
        {
            "buffer" : 0,
            "byteLength" : 2940,
            "byteOffset" : 195536
        },
        {
            "buffer" : 0,
            "byteLength" : 1752,
            "byteOffset" : 198476
        },
        {
            "buffer" : 0,
            "byteLength" : 1752,
            "byteOffset" : 200228
        },
        {
            "buffer" : 0,
            "byteLength" : 1168,
            "byteOffset" : 201980
        },
        {
            "buffer" : 0,
            "byteLength" : 1584,
            "byteOffset" : 203148
        },
        {
            "buffer" : 0,
            "byteLength" : 1752,
            "byteOffset" : 204732
        },
        {
            "buffer" : 0,
            "byteLength" : 1752,
            "byteOffset" : 206484
        },
        {
            "buffer" : 0,
            "byteLength" : 1168,
            "byteOffset" : 208236
        },
        {
            "buffer" : 0,
            "byteLength" : 1584,
            "byteOffset" : 209404
        },
        {
            "buffer" : 0,
            "byteLength" : 5400,
            "byteOffset" : 210988
        },
        {
            "buffer" : 0,
            "byteLength" : 5400,
            "byteOffset" : 216388
        },
        {
            "buffer" : 0,
            "byteLength" : 3600,
            "byteOffset" : 221788
        },
        {
            "buffer" : 0,
            "byteLength" : 4128,
            "byteOffset" : 225388
        },
        {
            "buffer" : 0,
            "byteLength" : 11160,
            "byteOffset" : 229516
        },
        {
            "buffer" : 0,
            "byteLength" : 11160,
            "byteOffset" : 240676
        },
        {
            "buffer" : 0,
            "byteLength" : 7440,
            "byteOffset" : 251836
        },
        {
            "buffer" : 0,
            "byteLength" : 8340,
            "byteOffset" : 259276
        },
        {
            "buffer" : 0,
            "byteLength" : 9216,
            "byteOffset" : 267616
        },
        {
            "buffer" : 0,
            "byteLength" : 9216,
            "byteOffset" : 276832
        },
        {
            "buffer" : 0,
            "byteLength" : 9216,
            "byteOffset" : 286048
        },
        {
            "buffer" : 0,
            "byteLength" : 9216,
            "byteOffset" : 295264
        },
        {
            "buffer" : 0,
            "byteLength" : 9216,
            "byteOffset" : 304480
        },
        {
            "buffer" : 0,
            "byteLength" : 9216,
            "byteOffset" : 313696
        },
        {
            "buffer" : 0,
            "byteLength" : 7440,
            "byteOffset" : 322912
        },
        {
            "buffer" : 0,
            "byteLength" : 7440,
            "byteOffset" : 330352
        },
        {
            "buffer" : 0,
            "byteLength" : 4960,
            "byteOffset" : 337792
        },
        {
            "buffer" : 0,
            "byteLength" : 6576,
            "byteOffset" : 342752
        }
    ],
    "buffers" : [
        {
            "byteLength" : 349328,
            "uri" : "data:application/octet-stream;base64,"
        }
    ]
}
